# Blender v2.76 (sub 0) OBJ File: 'SEAL Agent.blend'
# www.blender.org
o Cube
v -0.700000 0.000000 0.700000
v -0.000000 0.000000 -1.000000
v 0.700000 0.000000 0.700000
v -0.700000 0.300000 0.700000
v 0.000000 0.300000 -1.000000
v 0.700000 0.300000 0.700000
vn 0.000000 1.000000 0.000000
vn 0.000000 -1.000000 0.000000
vn 0.924700 -0.000000 -0.380700
vn -0.000000 0.000000 1.000000
vn -0.924700 -0.000000 -0.380700
vn -0.924700 0.000000 -0.380800
s off
f 4//1 6//1 5//1
f 1//2 2//2 3//2
f 3//3 2//3 6//3
f 6//3 2//3 5//3
f 4//4 3//4 6//4
f 3//4 4//4 1//4
f 2//5 1//5 4//5
f 4//6 5//6 2//6
