# Blender v2.76 (sub 0) OBJ File: 'SEAL Agent Herbivore.blend'
# www.blender.org
o Cylinder
v 0.000000 0.000000 -1.000000
v 0.000000 0.300000 -1.000000
v 0.136563 0.000000 -0.980785
v 0.136563 0.300000 -0.980785
v 0.267878 0.000000 -0.923880
v 0.267878 0.300000 -0.923880
v 0.388899 0.000000 -0.831470
v 0.388899 0.300000 -0.831470
v 0.494975 0.000000 -0.707107
v 0.494975 0.300000 -0.707107
v 0.582029 0.000000 -0.555570
v 0.582029 0.300000 -0.555570
v 0.646716 0.000000 -0.382683
v 0.646716 0.300000 -0.382683
v 0.686550 0.000000 -0.195090
v 0.686550 0.300000 -0.195090
v 0.700000 0.000000 -0.000000
v 0.700000 0.300000 -0.000000
v -0.700000 0.000000 -0.000001
v -0.700000 0.300000 -0.000001
v -0.686550 0.000000 -0.195091
v -0.686550 0.300000 -0.195091
v -0.646715 0.000000 -0.382684
v -0.646715 0.300000 -0.382684
v -0.582028 0.000000 -0.555571
v -0.582028 0.300000 -0.555571
v -0.494974 0.000000 -0.707108
v -0.494974 0.300000 -0.707108
v -0.388898 0.000000 -0.831470
v -0.388898 0.300000 -0.831470
v -0.267877 0.000000 -0.923880
v -0.267877 0.300000 -0.923880
v -0.136562 0.000000 -0.980786
v -0.136562 0.300000 -0.980786
v 0.700000 0.000000 -0.000000
v 0.700000 0.300000 -0.000000
v -0.700000 0.000000 -0.000001
v -0.700000 0.300000 -0.000001
v 0.700000 0.000000 -0.000000
v 0.700000 0.300000 -0.000000
v -0.700000 0.000000 -0.000001
v -0.700000 0.300000 -0.000001
v 0.700000 0.000000 0.700000
v 0.700000 0.300000 0.700000
v -0.700000 0.000000 0.699999
v -0.700000 0.300000 0.699999
vn 0.139300 0.000000 -0.990200
vn 0.397600 0.000000 -0.917500
vn 0.606900 0.000000 -0.794800
vn 0.760800 0.000000 -0.649000
vn 0.867100 0.000000 -0.498100
vn 0.936600 0.000000 -0.350400
vn 0.978200 0.000000 -0.207700
vn 0.997600 0.000000 -0.068800
vn 0.000000 0.000000 1.000000
vn -0.997600 0.000000 -0.068800
vn -0.978200 0.000000 -0.207700
vn -0.936600 0.000000 -0.350400
vn -0.867100 0.000000 -0.498100
vn -0.760800 0.000000 -0.649000
vn -0.606900 0.000000 -0.794800
vn -0.139300 0.000000 -0.990200
vn -0.397600 0.000000 -0.917600
vn 0.000000 1.000000 0.000000
vn -1.000000 0.000000 -0.000000
vn 0.000000 -1.000000 0.000000
vn 1.000000 0.000000 0.000000
vn -0.397600 0.000000 -0.917500
s off
f 2//1 4//1 3//1
f 4//2 6//2 5//2
f 6//3 8//3 7//3
f 8//4 10//4 9//4
f 10//5 12//5 11//5
f 12//6 14//6 13//6
f 14//7 16//7 15//7
f 16//8 18//8 17//8
f 19//9 17//9 35//9
f 18//9 20//9 38//9
f 20//10 22//10 21//10
f 22//11 24//11 23//11
f 24//12 26//12 25//12
f 26//13 28//13 27//13
f 28//14 30//14 29//14
f 30//15 32//15 31//15
f 34//16 2//16 1//16
f 32//17 34//17 33//17
f 20//18 18//18 22//18
f 22//18 18//18 24//18
f 24//18 18//18 26//18
f 26//18 18//18 28//18
f 28//18 18//18 30//18
f 30//18 18//18 32//18
f 32//18 18//18 34//18
f 34//18 18//18 2//18
f 2//18 18//18 4//18
f 4//18 18//18 6//18
f 6//18 18//18 8//18
f 8//18 18//18 10//18
f 10//18 18//18 12//18
f 12//18 18//18 14//18
f 16//18 14//18 18//18
f 37//9 35//9 39//9
f 36//9 38//9 42//9
f 20//9 19//9 37//9
f 17//9 18//9 36//9
f 45//19 46//19 19//19
f 20//19 19//19 46//19
f 38//9 37//9 41//9
f 35//9 36//9 40//9
f 43//9 44//9 45//9
f 46//9 45//9 44//9
f 17//20 43//20 45//20
f 45//20 19//20 35//20
f 19//20 21//20 17//20
f 21//20 23//20 17//20
f 25//20 17//20 23//20
f 27//20 17//20 25//20
f 29//20 17//20 27//20
f 31//20 17//20 29//20
f 33//20 17//20 31//20
f 1//20 17//20 33//20
f 3//20 17//20 1//20
f 5//20 17//20 3//20
f 7//20 17//20 5//20
f 9//20 17//20 7//20
f 11//20 17//20 9//20
f 13//20 17//20 11//20
f 15//20 17//20 13//20
f 44//18 18//18 46//18
f 46//18 36//18 20//18
f 44//21 17//21 18//21
f 43//21 35//21 44//21
f 19//10 20//10 21//10
f 21//11 22//11 23//11
f 23//12 24//12 25//12
f 25//13 26//13 27//13
f 27//14 28//14 29//14
f 29//15 30//15 31//15
f 31//22 32//22 33//22
f 33//16 34//16 1//16
f 1//1 2//1 3//1
f 3//2 4//2 5//2
f 5//3 6//3 7//3
f 7//4 8//4 9//4
f 9//5 10//5 11//5
f 11//6 12//6 13//6
f 13//7 14//7 15//7
f 15//8 16//8 17//8
f 37//9 19//9 35//9
f 36//9 18//9 38//9
f 41//9 37//9 39//9
f 40//9 36//9 42//9
f 38//9 20//9 37//9
f 35//9 17//9 36//9
f 42//9 38//9 41//9
f 39//9 35//9 40//9
